<svg xmlns="http://www.w3.org/2000/svg" width="64.075" height="42.162" viewBox="0 0 64.075 42.162">
  <g id="Bread" transform="translate(-67 -230)">
    <path id="Path_1" data-name="Path 1" d="M149.061,531.888H99.239a3.17,3.17,0,0,1-3.259-3.074v-.465h56.34v.465a3.171,3.171,0,0,1-3.26,3.074Zm0,0" transform="translate(-25.085 -260.528)" fill="#d45016"/>
    <path id="Path_2" data-name="Path 2" d="M169.574,236.6c-9.087.572-13.326,5.379-13.326,8.806a3.407,3.407,0,0,0,.749,2.055,7.354,7.354,0,0,0,2.087,1.794,4.176,4.176,0,0,0-2.836,4l-.069,20.391h28.662V236.582Zm0,0" transform="translate(-77.194 -5.748)" fill="tomato"/>
    <path id="Path_3" data-name="Path 3" d="M318.792,250.522a4.29,4.29,0,0,1,.785,2.481v7.955l-.069,12.436H289.2L289.268,253a4.176,4.176,0,0,1,2.836-4,7.344,7.344,0,0,1-2.087-1.794,3.4,3.4,0,0,1-.748-2.054c0-3.65,4.806-8.864,15.155-8.864q.976,0,1.883.057c9.337.572,13.27,5.379,13.27,8.807,0,1.435-1.051,2.764-2.836,3.848a4.048,4.048,0,0,1,2.051,1.517Zm0,0" transform="translate(-192.336 -5.495)" fill="#2f2e41"/>
    <path id="Path_4" data-name="Path 4" d="M342.7,250.914a4.29,4.29,0,0,1,.785,2.481v7.955l-.069,12.436h-26.6l.069-20.391a4.176,4.176,0,0,1,2.836-4,7.343,7.343,0,0,1-2.087-1.794,3.406,3.406,0,0,1-.749-2.054c0-3.428,4.239-8.235,13.325-8.807,9.337.572,13.271,5.379,13.271,8.807,0,1.435-1.051,2.764-2.836,3.848a4.048,4.048,0,0,1,2.051,1.517Zm0,0" transform="translate(-216.244 -5.887)" fill="#e2472c"/>
    <path id="Path_5" data-name="Path 5" d="M209.344,333.634h-8.67a.762.762,0,1,1,0-1.521h8.67a.762.762,0,1,1,0,1.521Zm0,0" transform="translate(-115.01 -89.169)" fill="#ad4f3a"/>
    <path id="Path_6" data-name="Path 6" d="M360.2,309.805a.73.73,0,0,1,0-1.075l6.232-5.878a.841.841,0,0,1,1.14,0,.73.73,0,0,1,0,1.075l-6.232,5.878a.841.841,0,0,1-1.14,0Zm-.743,6.834a.73.73,0,0,1,0-1.076l9.246-8.721a.841.841,0,0,1,1.14,0,.73.73,0,0,1,0,1.076L360.6,316.64a.841.841,0,0,1-1.14,0Zm11.421-10.772a.73.73,0,0,1,0-1.075l2.058-1.941a.841.841,0,0,1,1.14,0,.73.73,0,0,1,0,1.075l-2.057,1.941a.841.841,0,0,1-1.14,0Zm-4.541,10.427a.73.73,0,0,1,0-1.076l4.586-4.326a.841.841,0,0,1,1.14,0,.73.73,0,0,1,0,1.076l-4.586,4.326a.841.841,0,0,1-1.14,0Zm0,0" transform="translate(-252.948 -63.422)" fill="#bf6a50"/>
    <path id="Path_7" data-name="Path 7" d="M131.6,467.683a.963.963,0,0,0-.472-.126H114.3a1.007,1.007,0,0,0-.7.292A5.479,5.479,0,0,1,112.1,464a5.853,5.853,0,0,1,.345-1.989,4.954,4.954,0,0,1,1.359-2.046,3.647,3.647,0,0,1,4.169-.573l11.641,6.054.029.016a4.712,4.712,0,0,1,1.957,2.225Zm0,0" transform="translate(-39.04 -199.95)" fill="#9c99db"/>
    <path id="Path_8" data-name="Path 8" d="M142.577,467.685a.963.963,0,0,0-.472-.126h-8.078l-6.877-3.549s0,0-.005,0a5.085,5.085,0,0,1-2.364-4.043,3.647,3.647,0,0,1,4.169-.574l11.641,6.054.029.016a4.712,4.712,0,0,1,1.957,2.225Zm0,0" transform="translate(-50.015 -199.951)" fill="#2f2e41"/>
    <path id="Path_9" data-name="Path 9" d="M154.136,395.049a4.6,4.6,0,0,1-.272,1.569,3.61,3.61,0,0,1-2.194,2.268,3.056,3.056,0,0,1-2.4-.2l-4.2-2.142-6.412-3.439c-3.62-3.042-3.245-10.219,1.846-12.522,0,0-.005.037-.009.1-.043.683.009,4.608,6.421,7.776a50.714,50.714,0,0,1,5.057,2.741,4.307,4.307,0,0,1,2.161,3.846Zm0,0" transform="translate(-59.955 -131.494)" fill="#9c99db"/>
    <path id="Path_10" data-name="Path 10" d="M175.059,395.769a4.6,4.6,0,0,1-.272,1.569,3.61,3.61,0,0,1-2.194,2.268l-.412-.032a3.9,3.9,0,0,0-1.66-4.891l-2.048-1.145-1.479-.721-1.743-.921-1.473-.75-.976-.546c-3.886-2.793-1.948-7.916-1.382-9.193-.043.684.009,4.608,6.421,7.776a50.619,50.619,0,0,1,5.057,2.741,4.306,4.306,0,0,1,2.161,3.846Zm0,0" transform="translate(-80.878 -132.213)" fill="#2f2e41"/>
    <path id="Path_11" data-name="Path 11" d="M376.561,449.758c0,2.908-2.5,3.739-5.583,3.739s-5.583-.83-5.583-3.739,5.583-7.176,5.583-7.176,5.583,4.267,5.583,7.176Zm-12.509,0c0,2.908-2.5,3.739-5.583,3.739s-5.583-.83-5.583-3.739,5.583-7.176,5.583-7.176,5.583,4.267,5.583,7.176Zm0,0" transform="translate(-247.464 -185.634)" fill="tomato"/>
    <rect id="Rectangle_1" data-name="Rectangle 1" width="1.402" height="1.322" transform="translate(107.92 263.685)" fill="#911944"/>
    <rect id="Rectangle_2" data-name="Rectangle 2" width="1.402" height="1.322" transform="translate(112.69 263.685)" fill="#911944"/>
    <rect id="Rectangle_3" data-name="Rectangle 3" width="1.402" height="1.322" transform="translate(110.272 261.157)" fill="#911944"/>
    <rect id="Rectangle_4" data-name="Rectangle 4" width="1.402" height="1.322" transform="translate(120.428 263.685)" fill="#911944"/>
    <rect id="Rectangle_5" data-name="Rectangle 5" width="1.402" height="1.322" transform="translate(125.199 263.685)" fill="#911944"/>
    <rect id="Rectangle_6" data-name="Rectangle 6" width="1.402" height="1.322" transform="translate(122.78 261.157)" fill="#911944"/>
    <path id="Path_12" data-name="Path 12" d="M129.9,264.123c0-3.179-5.279-7.306-5.882-7.766l-.508-.388-.508.388c-.545.416-4.92,3.836-5.747,6.838-.827-3-5.2-6.421-5.747-6.838l-.507-.388-.508.388c-.6.46-5.881,4.587-5.881,7.766a3.981,3.981,0,0,0,1.172,2.978h-4.282l.066-19.631a3.4,3.4,0,0,1,2.293-3.28l.076-.025a.708.708,0,0,0,.166-1.293l-.067-.041a6.605,6.605,0,0,1-1.866-1.592,2.689,2.689,0,0,1-.6-1.616c0-1.433,1.341-3.285,3.5-4.834a18.013,18.013,0,0,1,9-3.2v-.006a17.316,17.316,0,0,1,9.116,2.843c2.034,1.46,3.249,3.4,3.249,5.195,0,1.413-1.341,2.525-2.466,3.209a.743.743,0,0,0,.175,1.358h0a3.394,3.394,0,0,1,2.292,3.279v7.2a.808.808,0,0,0,1.613,0v-7.2a4.96,4.96,0,0,0-2.132-4.1,4.86,4.86,0,0,0,2.132-3.743c0-2.265-1.452-4.66-3.885-6.406-2.034-1.46-5.76-3.2-11.971-3.218H94.1c-6.226,0-9.982,1.75-12.038,3.218-2.456,1.754-3.923,4.149-3.923,6.407a4.861,4.861,0,0,0,2.132,3.743,4.931,4.931,0,0,0-2.054,3.212.778.778,0,0,0,.8.891.793.793,0,0,0,.794-.634,3.348,3.348,0,0,1,2.237-2.645l1.572-.509-1.4-.849c-1.125-.684-2.466-1.8-2.466-3.209,0-3.365,4.452-8.1,14.348-8.1h9.208a15.417,15.417,0,0,0-3.164,1.694c-2.517,1.775-4.02,4.171-4.02,6.409a4.86,4.86,0,0,0,2.132,3.743,4.958,4.958,0,0,0-2.132,4.1L96.06,267.1h-2.5a4.72,4.72,0,0,0,1.11-1.759,5.18,5.18,0,0,0-2.214-6.3,53.618,53.618,0,0,0-5.085-2.764c-6.365-3.157-5.974-6.939-5.956-7.091l.2-1.4-1.351.614A8.17,8.17,0,0,0,75.6,255.77a9.041,9.041,0,0,0,.329,2.7,5.632,5.632,0,0,0-3.589,4.9,6.567,6.567,0,0,0,.707,3.734H67.806a.762.762,0,1,0,0,1.521h2.3a3.982,3.982,0,0,0,4.052,3.54h49.821a3.981,3.981,0,0,0,4.052-3.54h2.241a.762.762,0,1,0,0-1.521h-1.538a3.981,3.981,0,0,0,1.173-2.978Zm-6.388-6.182c2.03,1.656,4.775,4.476,4.775,6.182,0,1.386-.543,2.978-4.776,2.978s-4.776-1.592-4.776-2.978c0-1.876,3.088-4.8,4.778-6.182ZM118.3,267.1h-2.075a3.674,3.674,0,0,0,1.038-1.811A3.672,3.672,0,0,0,118.3,267.1Zm-12.068-2.978c0-1.876,3.088-4.8,4.778-6.182,2.03,1.656,4.775,4.476,4.775,6.182,0,1.386-.543,2.978-4.776,2.978s-4.776-1.592-4.776-2.978Zm-8.491-16.653a3.4,3.4,0,0,1,2.292-3.279h0a.743.743,0,0,0,.175-1.358c-1.125-.684-2.467-1.8-2.467-3.209,0-2.57,2.823-6.11,8.791-7.5a17.956,17.956,0,0,0-2.432,1.459c-2.591,1.858-4.138,4.118-4.138,6.045a4.119,4.119,0,0,0,.9,2.5,7.026,7.026,0,0,0,1.235,1.246,4.958,4.958,0,0,0-2.133,4.1L99.894,267.1H97.673Zm-20.531,8.337a7.171,7.171,0,0,1,1.823-4.641,11.535,11.535,0,0,0-.258,1.369,6.66,6.66,0,0,0,2.6,6.629l.356.2a.832.832,0,0,0,1.106-.263.735.735,0,0,0-.28-1.04l-.238-.133c-2.1-1.541-2.185-3.955-1.835-5.82.8,1.657,2.512,3.717,6.147,5.519a51.033,51.033,0,0,1,4.939,2.682l.08.048a3.761,3.761,0,0,1,1.5,4.495,3.156,3.156,0,0,1-.891,1.331,4.454,4.454,0,0,0-2.315-4.205l-1.335-.75a.834.834,0,0,0-1.106.264.737.737,0,0,0,.28,1.043l1.343.754.017.009a3.079,3.079,0,0,1,1.425,3.448,2.318,2.318,0,0,1-.845-.254l-9.474-4.853a6.251,6.251,0,0,1-3.04-5.833Zm-3.267,7.706a5.1,5.1,0,0,1,.394-1.524,5.02,5.02,0,0,0,1.88,2.47.836.836,0,0,0,1.194-.227.736.736,0,0,0-.218-.984,3.218,3.218,0,0,1-1.463-2.989,3.006,3.006,0,0,1,.749-.364,6.9,6.9,0,0,0,3,3.082L87.53,267.1H84.4l-4.656-2.412a.833.833,0,0,0-1.1.3h0a.738.738,0,0,0,.318,1.032l2.082,1.079H74.932a4.936,4.936,0,0,1-.991-3.588Zm50.034,7.128H74.154a2.412,2.412,0,0,1-2.433-2.018h54.687a2.412,2.412,0,0,1-2.433,2.018Zm0,0" fill="#191010"/>
    <path id="Path_13" data-name="Path 13" d="M196.448,462.722l-.328-.174a.833.833,0,0,0-1.1.289.738.738,0,0,0,.307,1.036l.328.174a.833.833,0,0,0,1.1-.29.738.738,0,0,0-.307-1.036Zm0,0" transform="translate(-110.726 -202.983)" fill="#191010"/>
  </g>
</svg>
