<svg xmlns="http://www.w3.org/2000/svg" width="83.042" height="81.9" viewBox="0 0 83.042 81.9">
  <g id="Medium_Parcel" transform="translate(-130.6 -520)">
    <path id="Path_34" data-name="Path 34" d="M-.025.532,30.687,18.283l-.221,35.21L-.008,35.744Z" transform="translate(133.871 543.823)" fill="tomato"/>
    <path id="Path_35" data-name="Path 35" d="M.293.6l30.177,18.07-.612,35.3L-.337,35.727Z" transform="translate(198.46 543.781) rotate(59)" fill="tomato"/>
    <path id="Path_36" data-name="Path 36" d="M1.649,3.931l13.607,8.832L13.2,47.792-.262,39.027Z" transform="matrix(0.454, -0.891, 0.891, 0.454, 131.335, 541.176)" fill="tomato"/>
    <path id="Path_37" data-name="Path 37" d="M1.562,3.931l12.97,8.4-1.9,35.2L-.319,39.11Z" transform="matrix(0.454, -0.891, 0.891, 0.454, 148.335, 531.176)" fill="tomato"/>
    <path id="Path_38" data-name="Path 38" d="M181.63,554.9l2.355,7.215,1.5-3.035,2.281-.17-2.286-7.3Z" transform="matrix(0.966, 0.259, -0.259, 0.966, 148.955, -30.475)" fill="#2f2e41"/>
    <g id="noun_Box_196561" transform="translate(321 304)">
      <path id="Path_33" data-name="Path 33" d="M-119.6,236.5-155,216l-35.4,20.5v40.9l35.4,20.5,35.4-20.5Zm-5,1-13.4,7.7-30.2-17.7,13.1-7.6ZM-155,255.1l-30.4-17.6,14-8.1,30.2,17.7Zm-32.1-14.7,30.4,17.6v35.1l-30.4-17.6Zm33.8,52.7V258l30.4-17.6v35.1Z" fill="#2f2e41"/>
      <path id="Path_39" data-name="Path 39" d="M1.036.923l11.4-5.308L11.93.455.544,5.6Z" transform="matrix(0.995, -0.105, 0.105, 0.995, -136.234, 259.536)" fill="#2f2e41"/>
      <path id="Path_41" data-name="Path 41" d="M1.083-3.48l12.345-.912-.361.74L.67-2.633Z" transform="matrix(0.899, -0.438, 0.438, 0.899, -134.413, 270.129)" fill="#2f2e41"/>
      <path id="Path_42" data-name="Path 42" d="M.891-3.48l6.545-.98-.271.705L.632-2.806Z" transform="translate(-129.42 268.367) rotate(-22)" fill="#2f2e41"/>
    </g>
    <path id="Path_40" data-name="Path 40" d="M153.237,583.609l2.111-3.329,3.31,2.943-1.6.082L158,588.4l-2.239.112-.91-4.914Z" transform="matrix(0.978, 0.208, -0.208, 0.978, 128.728, -16.319)" fill="#2f2e41"/>
  </g>
</svg>
