<svg xmlns="http://www.w3.org/2000/svg" width="370.856" height="403.996" viewBox="0 0 370.856 403.996">
  <g id="Pizza" transform="translate(-284 -559)">
    <g id="pizza-2" data-name="pizza" transform="translate(263.001 559)">
      <path id="Path_92" data-name="Path 92" d="M380.972,246.08v84.253a15.29,15.29,0,0,1-15.261,15.319,15.129,15.129,0,0,1-7.63-2.066v32.7a15.261,15.261,0,1,1-30.522,0V292.037a15.29,15.29,0,0,1,15.261-15.319,15.129,15.129,0,0,1,7.63,2.066v-32.7a15.261,15.261,0,1,1,30.522,0Z" transform="translate(-64.668 -48.678)" fill="#ffc850"/>
      <path id="Path_93" data-name="Path 93" d="M110.732,211.348a15.29,15.29,0,0,1,15.261,15.319v32.7a15.129,15.129,0,0,1,7.63-2.066,15.29,15.29,0,0,1,15.261,15.319v84.253a15.261,15.261,0,1,1-30.522,0v-32.7a15.129,15.129,0,0,1-7.63,2.066A15.29,15.29,0,0,1,95.471,310.92V226.667A15.29,15.29,0,0,1,110.732,211.348Z" transform="translate(-15.709 -44.583)" fill="#fa9e39"/>
      <path id="Path_94" data-name="Path 94" d="M360.13,69.148q6.089,6.119,11.578,12.6a31.122,31.122,0,0,1,3.228,35.379L217.3,395.76a7.625,7.625,0,0,1-13.306,0L47.3,118.789a31.172,31.172,0,0,1,3.05-35.167A213.108,213.108,0,0,1,67.236,65.475C149.524-13.244,279.778-11.586,360.13,69.148Z" transform="translate(-4.694 -1.582)" fill="tomato"/>
      <path id="Path_95" data-name="Path 95" d="M237.229,377.364,95.058,126.067a51.449,51.449,0,0,1,5.033-58.039A351.841,351.841,0,0,1,127.961,38.08q9.343-8.938,19.172-17.036A209.365,209.365,0,0,1,369.65,69.15q6.089,6.119,11.578,12.6a31.123,31.123,0,0,1,3.228,35.379Z" transform="translate(-14.213 -1.584)" fill="tomato"/>
      <path id="Path_96" data-name="Path 96" d="M378.991,120.867l-2.2,3.882a7.873,7.873,0,0,1-13.073.964q-1.365-1.745-2.762-3.465C340.854,97.5,317.67,78.724,292.9,65.943a22.872,22.872,0,0,1-42.1-12.487,23.252,23.252,0,0,1,.215-3.111,175.36,175.36,0,0,0-86.236,1.188,22.907,22.907,0,1,1-42.392,17.231c-21.215,11.8-41.188,28.09-58.954,48.914q-4.085,4.788-7.906,9.778a7.868,7.868,0,0,1-13.1-.923l-2.234-3.949a32.237,32.237,0,0,1,3.153-36.366A220.405,220.405,0,0,1,60.8,67.452c85.092-81.4,219.787-79.688,302.879,3.8q6.3,6.327,11.972,13.033A32.184,32.184,0,0,1,378.991,120.867Z" transform="translate(-3.164 -1.582)" fill="#ef9f67"/>
      <path id="Path_97" data-name="Path 97" d="M77.866,119.22q-7.428,7.265-14.438,15.458-4.085,4.788-7.906,9.778a7.868,7.868,0,0,1-13.1-.923l-2.234-3.949a32.237,32.237,0,0,1,3.153-36.366q6.462-7.81,13.771-15.129C61.552,99.107,68.6,109.558,77.866,119.22Z" transform="translate(-3.164 -18.582)" fill="#de925f"/>
      <path id="Path_98" data-name="Path 98" d="M152.964,136.295a119.229,119.229,0,0,1-33.732-32.54h0a26.493,26.493,0,0,1,3.288-33.334h0a25.134,25.134,0,0,1,35.64,0l1.456,1.461a4.53,4.53,0,0,0,6.423,0l1.456-1.461a25.134,25.134,0,0,1,35.64,0h0a26.493,26.493,0,0,1,3.288,33.334h0a119.208,119.208,0,0,1-33.732,32.54l-7.421,4.751a4.527,4.527,0,0,1-4.883,0Zm80.692,156.248a25.134,25.134,0,0,0-35.64,0L196.56,294a4.53,4.53,0,0,1-6.423,0l-1.456-1.461a25.134,25.134,0,0,0-35.64,0h0a26.493,26.493,0,0,0-3.288,33.334h0a119.208,119.208,0,0,0,33.732,32.54l7.421,4.751a4.527,4.527,0,0,0,4.883,0l7.421-4.751a119.229,119.229,0,0,0,33.732-32.54h0a26.492,26.492,0,0,0-3.287-33.334Zm117.62-89.757h0a25.134,25.134,0,0,0-35.64,0l-1.455,1.461a4.529,4.529,0,0,1-6.422,0l-1.456-1.461a25.134,25.134,0,0,0-35.64,0h0a26.493,26.493,0,0,0-3.288,33.334h0a119.208,119.208,0,0,0,33.732,32.54l7.421,4.751a4.527,4.527,0,0,0,4.883,0l7.421-4.751a119.228,119.228,0,0,0,33.732-32.54h0A26.492,26.492,0,0,0,351.276,202.785Z" transform="translate(-19.789 -11.292)" fill="#2f2e41"/>
      <path id="Path_99" data-name="Path 99" d="M152.964,136.295a119.229,119.229,0,0,1-33.732-32.54,26.493,26.493,0,0,1,3.288-33.334h0A25.139,25.139,0,0,1,151.038,65.4a35.854,35.854,0,0,0-5.14,4.27h0a37.529,37.529,0,0,0-4.658,47.221h0a169.023,169.023,0,0,0,21.009,24.83,4.518,4.518,0,0,1-1.865-.675Zm18.8,202.716h0a37.531,37.531,0,0,1,4.658-47.221h0a35.856,35.856,0,0,1,5.14-4.27,25.139,25.139,0,0,0-28.518,5.022h0a26.493,26.493,0,0,0-3.288,33.334,119.218,119.218,0,0,0,33.732,32.54l7.421,4.751a4.514,4.514,0,0,0,1.865.675A169.028,169.028,0,0,1,171.763,339.011Zm117.62-89.757h0a37.531,37.531,0,0,1,4.658-47.221h0a35.856,35.856,0,0,1,5.14-4.27,25.139,25.139,0,0,0-28.518,5.022h0a26.493,26.493,0,0,0-3.288,33.334,119.208,119.208,0,0,0,33.732,32.54l7.421,4.751a4.514,4.514,0,0,0,1.865.675A169.028,169.028,0,0,1,289.383,249.254Z" transform="translate(-19.789 -13.292)" fill="#383664"/>
      <path id="Path_101" data-name="Path 101" d="M382.608,78.823c-4.028-4.6-8.3-9.1-12.708-13.377a229.668,229.668,0,0,0-42.371-32.5,5.918,5.918,0,1,0-6.062,10.165,217.869,217.869,0,0,1,40.183,30.823c4.177,4.06,8.234,8.328,12.054,12.688a25.472,25.472,0,0,1,2.8,29.694l-2.272,3.882a2.213,2.213,0,0,1-1.79,1.068,2.351,2.351,0,0,1-2.021-.837q-1.446-1.787-2.925-3.549c-20.857-24.827-45.176-44.271-72.277-57.791a5.918,5.918,0,0,0-7.563,2.007A17.887,17.887,0,0,1,272.7,68.957c-9.79,0-17.755-7.653-17.755-17.059a16.611,16.611,0,0,1,.166-2.3,5.918,5.918,0,0,0-4.535-6.583,193.658,193.658,0,0,0-54.239-4.658A5.918,5.918,0,1,0,197,50.178a181.608,181.608,0,0,1,46.157,3.344c.866,15.179,13.787,27.27,29.546,27.27a29.831,29.831,0,0,0,21.42-8.958c23.967,12.675,45.582,30.372,64.306,52.659q1.41,1.677,2.785,3.379c.107.133.23.249.342.376L331.586,179.47a32.671,32.671,0,0,0-36.813,5.792l-.7.683-.7-.683a32.621,32.621,0,0,0-45.1,0,31.807,31.807,0,0,0-4.158,40.927l.067.1a126.831,126.831,0,0,0,36.581,34.124l7.675,4.751a10.794,10.794,0,0,0,11.28,0l7.675-4.751q3.461-2.142,6.75-4.483v25.738a9.651,9.651,0,0,1-9.864,9.4,10.065,10.065,0,0,1-4.991-1.307,5.918,5.918,0,0,0-8.819,5.157v32.7a9.875,9.875,0,0,1-19.728,0v-20.71l10.552-18.034a5.918,5.918,0,0,0-10.217-5.976L207.7,391.191a2.1,2.1,0,0,1-3.543,0L181.635,352.7l4.107-2.542a126.813,126.813,0,0,0,36.582-34.124l.067-.1a31.807,31.807,0,0,0-4.158-40.927h0a32.622,32.622,0,0,0-45.1,0l-.7.683-.7-.683a32.621,32.621,0,0,0-45.1,0,31.807,31.807,0,0,0-4.158,40.927l.067.1c.266.371.54.734.81,1.1a9.948,9.948,0,0,1-8.461,4.562,9.651,9.651,0,0,1-9.864-9.4V279.6a5.918,5.918,0,0,0-8.819-5.157,10.063,10.063,0,0,1-4.991,1.307,9.651,9.651,0,0,1-9.864-9.4V204.734l31.687,54.154a5.918,5.918,0,0,0,10.217-5.976L51.337,130.023c.129-.149.258-.3.38-.453,2.6-3.275,5.28-6.484,7.976-9.54A226.239,226.239,0,0,1,89.578,91.736c.411.71.846,1.411,1.318,2.1l.067.1a126.831,126.831,0,0,0,36.581,34.124l7.675,4.751a10.8,10.8,0,0,0,11.282,0l7.674-4.751a126.813,126.813,0,0,0,36.582-34.124l.067-.1a31.808,31.808,0,0,0-4.158-40.927h0a32.622,32.622,0,0,0-45.1,0l-.7.683-.7-.683a32.622,32.622,0,0,0-45.1,0A31.9,31.9,0,0,0,85.565,79.9a236.788,236.788,0,0,0-34.748,32.3c-2.832,3.21-5.65,6.58-8.374,10.015a2.313,2.313,0,0,1-2,.838,2.221,2.221,0,0,1-1.81-1.073l-2.31-3.949A25.574,25.574,0,0,1,38.975,88.5,218.482,218.482,0,0,1,56.556,70.236c65.008-60.127,159.879-75.493,241.69-39.145a5.918,5.918,0,1,0,4.807-10.816A236.365,236.365,0,0,0,170.851,2.8,230.51,230.51,0,0,0,29.984,80.809a37.418,37.418,0,0,0-3.873,43.2l2.31,3.949a14.086,14.086,0,0,0,11.193,6.9c.287.021.574.027.86.03l29.062,49.667a5.94,5.94,0,0,0-.031.607v81.182a21.5,21.5,0,0,0,21.7,21.235q.989,0,1.973-.089V312.3a21.5,21.5,0,0,0,21.7,21.235,21.878,21.878,0,0,0,16.074-6.979,127.366,127.366,0,0,0,28.158,23.6l7.675,4.751a10.581,10.581,0,0,0,3.191,1.306l23.962,40.952a13.939,13.939,0,0,0,23.978,0L258.9,327.135v.481a21.706,21.706,0,0,0,43.4,0V302.81q.982.089,1.973.089a21.5,21.5,0,0,0,21.7-21.235V246.444a126.187,126.187,0,0,0,18-20.16l.067-.1a31.786,31.786,0,0,0-2.89-39.618L372.433,133.1c.3,0,.6-.012.9-.034a14.08,14.08,0,0,0,11.115-6.892l2.272-3.882A37.3,37.3,0,0,0,382.608,78.823ZM103.3,61.4a20.7,20.7,0,0,1,28.613,0l1.5,1.461a10.767,10.767,0,0,0,14.888,0l1.5-1.461a20.7,20.7,0,0,1,28.614,0A20.006,20.006,0,0,1,181.1,87.089a115.024,115.024,0,0,1-33.153,30.9l-7.084,4.386-7.086-4.386a115.053,115.053,0,0,1-33.152-30.9A20.006,20.006,0,0,1,103.3,61.4Zm62.042,278.7a115.053,115.053,0,0,1-33.152-30.9,20.005,20.005,0,0,1,2.675-25.69,20.694,20.694,0,0,1,28.613,0l1.5,1.461a10.767,10.767,0,0,0,14.888,0l1.5-1.461a20.7,20.7,0,0,1,28.614,0h0a20.006,20.006,0,0,1,2.675,25.691,115.024,115.024,0,0,1-33.153,30.9l-7.084,4.386ZM334.307,219.444a115.031,115.031,0,0,1-33.152,30.9l-7.086,4.386-7.085-4.386a115.053,115.053,0,0,1-33.152-30.9,20,20,0,0,1,2.675-25.69,20.694,20.694,0,0,1,28.613,0l1.505,1.461a10.768,10.768,0,0,0,14.887,0l1.5-1.461a20.694,20.694,0,0,1,28.614,0h0A20,20,0,0,1,334.307,219.444Z" transform="translate(0)"/>
    </g>
    <g id="Emojione_1F355" transform="translate(122.07 799.121) rotate(-65)">
      <g id="Group_1" data-name="Group 1" transform="matrix(0.899, -0.438, 0.438, 0.899, 38.149, 187.283)">
        <path id="Path_107" data-name="Path 107" d="M76.479,76.95H74.161c-1.391-.464-2.318-.927-2.781-2.318a4.925,4.925,0,0,1-.464-3.708,13.321,13.321,0,0,0-1.391-10.2,13.106,13.106,0,0,0-8.344-6.49c-6.953-1.854-14.833,2.781-16.687,9.271a4.879,4.879,0,0,1-6.026,3.245c-2.781-.927-4.172-3.245-3.245-6.026,2.318-8.344,9.271-15.3,18.078-16.687a25.266,25.266,0,0,1,10.2.464A21.733,21.733,0,0,1,77.406,55.164a23.468,23.468,0,0,1,2.318,17.614,4.061,4.061,0,0,1-3.245,4.172" transform="matrix(-0.966, 0.259, -0.259, -0.966, 218.215, 297.485)" fill="#83bf4f"/>
      </g>
      <g id="Group_2" data-name="Group 2" transform="translate(90 148)">
        <path id="Path_108" data-name="Path 108" d="M99.986,57.9c7.109,20.82-4.062,43.163-25.39,50.272s-44.178-4.062-50.78-24.882c-7.109-20.82,4.062-43.163,25.39-50.272A40.093,40.093,0,0,1,99.986,57.9" transform="translate(61.737 66.069)" fill="#b21725"/>
        <path id="Path_109" data-name="Path 109" d="M87.261,50.193A24.262,24.262,0,0,1,72.027,80.661c-12.695,4.062-26.405-2.539-30.468-15.234A24.262,24.262,0,0,1,56.793,34.959C68.98,30.9,82.691,37.5,87.261,50.193" transform="translate(137.936 77.84)" fill="#b21725"/>
        <path id="Path_110" data-name="Path 110" d="M80.474,36.63a32.622,32.622,0,0,1-20.82,41.131C42.389,83.347,23.6,74.207,18.015,57.449a32.622,32.622,0,0,1,20.82-41.131C56.1,10.732,74.888,19.873,80.474,36.63" transform="translate(40.118 0)" fill="#b21725"/>
      </g>
      <g id="Group_3" data-name="Group 3" transform="translate(1.179 14.139)">
        <path id="Path_120" data-name="Path 120" d="M0,0H8.969V8.969H0Z" transform="translate(133.688 213.188) rotate(-45)" fill="#2f2e41"/>
      </g>
      <g id="Group_4" data-name="Group 4" transform="translate(411.501 197.739) rotate(103)">
        <path id="Path_107-2" data-name="Path 107" d="M76.479,76.95H74.161c-1.391-.464-2.318-.927-2.781-2.318a4.925,4.925,0,0,1-.464-3.708,13.321,13.321,0,0,0-1.391-10.2,13.106,13.106,0,0,0-8.344-6.49c-6.953-1.854-14.833,2.781-16.687,9.271a4.879,4.879,0,0,1-6.026,3.245c-2.781-.927-4.172-3.245-3.245-6.026,2.318-8.344,9.271-15.3,18.078-16.687a25.266,25.266,0,0,1,10.2.464A21.733,21.733,0,0,1,77.406,55.164a23.468,23.468,0,0,1,2.318,17.614,4.061,4.061,0,0,1-3.245,4.172" transform="matrix(-0.966, 0.259, -0.259, -0.966, 218.215, 297.485)" fill="#83bf4f"/>
      </g>
    </g>
    <g id="Group_5" data-name="Group 5" transform="translate(225.383 829.028) rotate(-65)">
      <path id="Path_120-2" data-name="Path 120" d="M0,0H8.969V8.969H0Z" transform="translate(133.688 213.188) rotate(-45)" fill="#2f2e41"/>
    </g>
    <g id="Group_6" data-name="Group 6" transform="translate(169.383 779.028) rotate(-65)">
      <path id="Path_120-3" data-name="Path 120" d="M0,0H8.969V8.969H0Z" transform="translate(133.688 213.188) rotate(-45)" fill="#2f2e41"/>
    </g>
    <g id="Group_7" data-name="Group 7" transform="translate(258.383 884.028) rotate(-65)">
      <path id="Path_120-4" data-name="Path 120" d="M0,0H8.969V8.969H0Z" transform="translate(133.688 213.188) rotate(-45)" fill="#2f2e41"/>
    </g>
    <g id="Group_8" data-name="Group 8" transform="translate(279.383 735.028) rotate(-65)">
      <path id="Path_120-5" data-name="Path 120" d="M0,0H8.969V8.969H0Z" transform="translate(133.688 213.188) rotate(-45)" fill="#2f2e41"/>
    </g>
  </g>
</svg>
