<svg xmlns="http://www.w3.org/2000/svg" width="170.608" height="177.458" viewBox="0 0 170.608 177.458">
  <g id="Small_Parcel" data-name="Small Parcel" transform="translate(-436.105 -245.261)">
    <path id="Path_24" data-name="Path 24" d="M603.607,288.552V375.1l-22.879,46.159v.005L580,422.719l-60.57-4-23.284-1.54-54.04-3.57V310.085l54.04,1.524,24.166.683,61.138,1.727Z" fill="tomato"/>
    <path id="Path_25" data-name="Path 25" d="M603.607,293.658V375.1l-5.59,11.276v0l-5.732,11.558v0l-11.557,23.317,1.292-86.546.261-17.458,10.99-12.158v0l4.791-5.3Z" opacity="0.1"/>
    <path id="Path_26" data-name="Path 26" d="M606.713,265.57V295.8l-3.106,4.948-5.549,8.841-4.915,7.831-10.862,17.3-.261-.013L437.347,327.27V297.455l.365-.393,17.272-18.7,6.252-6.766,11.309-12.241Z" fill="tomato"/>
    <path id="Path_27" data-name="Path 27" d="M582.281,304.909v29.815L437.347,327.27V297.455l.365-.393Z" opacity="0.1"/>
    <path id="Path_28" data-name="Path 28" d="M606.713,265.57V295.8l-24.432,38.925V304.909Z" opacity="0.15"/>
    <path id="Path_29" data-name="Path 29" d="M598.075,279.479l-.013,20.312,0,9.8-.041,76.786v0l-5.732,11.558.858-80.517.128-12.324v0l.2-18.191-138.482-8.535,6.252-6.766Z" fill="#2f2e41"/>
    <path id="Path_30" data-name="Path 30" d="M530.1,280.477l-9.7,21.073-.087,10.742-.882,106.427-23.284-1.54V300.147l12.423-19.67Z" fill="#2f2e41"/>
    <path id="Path_31" data-name="Path 31" d="M564.15,316.038a30.766,30.766,0,0,1-17.354.609,6.974,6.974,0,0,1-3.044-1.412,7.883,7.883,0,0,1-1.883-3.731,29.478,29.478,0,0,1-1.662-8.929c.07-3.04,1.233-6.212,3.713-7.971a8.775,8.775,0,0,0,1.41-1.059,5.848,5.848,0,0,0,1.091-2.217c1.7-5.061,4.985-10.4,10.261-11.214,4.867-.747,9.3,2.652,13.047,5.843l8.231,7a12.987,12.987,0,0,1,24.215-.33,46.061,46.061,0,0,1,18.311-12.564c1.559-.581,3.391-1.054,4.812-.189a5.521,5.521,0,0,1,1.915,2.569,39.559,39.559,0,0,1,3.568,15.606,2.731,2.731,0,0,1,3.174,1.095,7.2,7.2,0,0,1,1.056,3.44,48.69,48.69,0,0,1,.328,5.668c0,2-.186,4.155-1.488,5.669-1.682,1.957-4.586,2.164-7.166,2.226,1.242,1.1.636,3.323-.738,4.257s-3.152.951-4.813.934c-6.4-.062-13.216-.244-18.543-3.8-2.1-1.4-3.865-3.273-5.974-4.668-5.169-3.42-11.658-3.584-17.641-3.3C573.577,309.829,569.291,314.316,564.15,316.038Z" transform="translate(-66 -34.143)" fill="#2f2e41"/>
    <path id="Path_32" data-name="Path 32" d="M562.977,314.62s-53.418,7.454-60.872,39.753l11.181-1.656,7.868,14.079s8.282-31.471,32.714-38.925,33.128-8.7,33.128-8.7,16.978,4.141,32.3,53.418l8.7-12.009,15.322,3.313s-11.181-38.511-41.41-49.277Z" transform="translate(-66 -34.143)" fill="#2f2e41"/>
  </g>
</svg>
