<svg xmlns="http://www.w3.org/2000/svg" width="145.791" height="71.294" viewBox="0 0 145.791 71.294">
  <g id="Truck" transform="translate(-1318 -330.706)">
    <g id="LOGO_White_Final" transform="translate(1247.791 33)">
      <g id="Rectangle_1" data-name="Rectangle 1" transform="translate(122 325)" fill="tomato" stroke="#2f2e41" stroke-linecap="round" stroke-linejoin="bevel" stroke-width="2">
        <rect width="94" height="28" rx="7" stroke="none"/>
        <rect x="1" y="1" width="92" height="26" rx="6" fill="none"/>
      </g>
      <path id="Path_1" data-name="Path 1" d="M8.789,0H39.552c4.854,0,8.789,2.674,8.789,5.976V24.639c0,3.3-3.935,5.976-8.789,5.976H8.789C3.935,30.613,0,27.938,0,24.639V5.976C0,2.674,3.935,0,8.789,0Z" transform="translate(71.209 323.422)" fill="tomato" stroke="#2f2e41" stroke-width="2"/>
      <g id="Ellipse_4" data-name="Ellipse 4" transform="translate(129 343)" fill="tomato">
        <path d="M 13.5 25 C 10.15402984619141 25 7.010220050811768 23.74708938598633 4.64769983291626 21.47207069396973 C 2.29544997215271 19.20693016052246 1 16.19816017150879 1 13 C 1 9.801839828491211 2.29544997215271 6.793069839477539 4.64769983291626 4.527929782867432 C 7.010220050811768 2.252909898757935 10.15402984619141 1 13.5 1 C 16.84597015380859 1 19.98978042602539 2.252909898757935 22.3523006439209 4.527929782867432 C 24.70454978942871 6.793069839477539 26 9.801839828491211 26 13 C 26 16.19816017150879 24.70454978942871 19.20693016052246 22.3523006439209 21.47207069396973 C 19.98978042602539 23.74708938598633 16.84597015380859 25 13.5 25 Z" stroke="none"/>
        <path d="M 13.5 2 C 7.158880233764648 2 2 6.934579849243164 2 13 C 2 19.06542015075684 7.158880233764648 24 13.5 24 C 19.84111976623535 24 25 19.06542015075684 25 13 C 25 6.934579849243164 19.84111976623535 2 13.5 2 M 13.5 0 C 20.95584106445313 0 27 5.82029914855957 27 13 C 27 20.1796989440918 20.95584106445313 26 13.5 26 C 6.044160842895508 26 0 20.1796989440918 0 13 C 0 5.82029914855957 6.044160842895508 0 13.5 0 Z" stroke="none" fill="#2f2e41"/>
      </g>
      <g id="Ellipse_5" data-name="Ellipse 5" transform="translate(183 343)" fill="tomato">
        <path d="M 13.5 25 C 10.15402984619141 25 7.010220050811768 23.74708938598633 4.64769983291626 21.47207069396973 C 2.29544997215271 19.20693016052246 1 16.19816017150879 1 13 C 1 9.801839828491211 2.29544997215271 6.793069839477539 4.64769983291626 4.527929782867432 C 7.010220050811768 2.252909898757935 10.15402984619141 1 13.5 1 C 16.84597015380859 1 19.98978042602539 2.252909898757935 22.3523006439209 4.527929782867432 C 24.70454978942871 6.793069839477539 26 9.801839828491211 26 13 C 26 16.19816017150879 24.70454978942871 19.20693016052246 22.3523006439209 21.47207069396973 C 19.98978042602539 23.74708938598633 16.84597015380859 25 13.5 25 Z" stroke="none"/>
        <path d="M 13.5 2 C 7.158880233764648 2 2 6.934579849243164 2 13 C 2 19.06542015075684 7.158880233764648 24 13.5 24 C 19.84111976623535 24 25 19.06542015075684 25 13 C 25 6.934579849243164 19.84111976623535 2 13.5 2 M 13.5 0 C 20.95584106445313 0 27 5.82029914855957 27 13 C 27 20.1796989440918 20.95584106445313 26 13.5 26 C 6.044160842895508 26 0 20.1796989440918 0 13 C 0 5.82029914855957 6.044160842895508 0 13.5 0 Z" stroke="none" fill="#2f2e41"/>
      </g>
      <g id="Path_2" data-name="Path 2" transform="translate(85.631 300.206)">
        <path id="Path_43" data-name="Path 43" d="M32.869,21.8H.892L13.963.5H32.869Z" transform="translate(-1 -2)" fill="tomato" stroke="#2f2e41" stroke-width="2"/>
      </g>
      <circle id="Ellipse_7" data-name="Ellipse 7" cx="6.5" cy="6.5" r="6.5" transform="translate(136 350)" fill="#2f2e41"/>
      <circle id="Ellipse_8" data-name="Ellipse 8" cx="6.5" cy="6.5" r="6.5" transform="translate(190 350)" fill="#2f2e41"/>
      <g id="Ellipse_3" data-name="Ellipse 3" transform="translate(82 343)" fill="tomato">
        <path d="M 13.5 25 C 10.15402984619141 25 7.010220050811768 23.74708938598633 4.64769983291626 21.47207069396973 C 2.29544997215271 19.20693016052246 1 16.19816017150879 1 13 C 1 9.801839828491211 2.29544997215271 6.793069839477539 4.64769983291626 4.527929782867432 C 7.010220050811768 2.252909898757935 10.15402984619141 1 13.5 1 C 16.84597015380859 1 19.98978042602539 2.252909898757935 22.3523006439209 4.527929782867432 C 24.70454978942871 6.793069839477539 26 9.801839828491211 26 13 C 26 16.19816017150879 24.70454978942871 19.20693016052246 22.3523006439209 21.47207069396973 C 19.98978042602539 23.74708938598633 16.84597015380859 25 13.5 25 Z" stroke="none"/>
        <path d="M 13.5 2 C 7.158880233764648 2 2 6.934579849243164 2 13 C 2 19.06542015075684 7.158880233764648 24 13.5 24 C 19.84111976623535 24 25 19.06542015075684 25 13 C 25 6.934579849243164 19.84111976623535 2 13.5 2 M 13.5 0 C 20.95584106445313 0 27 5.82029914855957 27 13 C 27 20.1796989440918 20.95584106445313 26 13.5 26 C 6.044160842895508 26 0 20.1796989440918 0 13 C 0 5.82029914855957 6.044160842895508 0 13.5 0 Z" stroke="none" fill="#2f2e41"/>
      </g>
      <circle id="Ellipse_6" data-name="Ellipse 6" cx="6.5" cy="6.5" r="6.5" transform="translate(89 350)" fill="#2f2e41"/>
      <g id="Path_2-2" data-name="Path 2" transform="translate(94.265 303.677)">
        <path id="Path_43-2" data-name="Path 43" d="M21.591,14.114H.892L9.353.5H21.591Z" transform="translate(-2.161 -2)" fill="#2f2e41" stroke="#2f2e41" stroke-width="2"/>
      </g>
    </g>
    <g id="Rectangle_1-2" data-name="Rectangle 1" transform="translate(1369 338)" fill="tomato" stroke="#2f2e41" stroke-width="2">
      <rect width="8" height="20" rx="3" stroke="none"/>
      <rect x="1" y="1" width="6" height="18" rx="2" fill="none"/>
    </g>
  </g>
</svg>
